<svg xmlns="http://www.w3.org/2000/svg" xmlns:xlink="http://www.w3.org/1999/xlink" xmlns:lucid="lucid" width="1722" height="293"><g transform="translate(1714 -209)" lucid:page-tab-id="0_0"><path d="M-538.14 360c-8.84 0-16 7.16-16 16v48c0 8.84 7.16 16 16 16h128c8.83 0 16-7.16 16-16v-48c0-8.84-7.17-16-16-16z" stroke="#5e5e5e" stroke-width="3" fill="#00b098"/><use xlink:href="#a" transform="matrix(1,0,0,1,-546.1443362721348,368) translate(52.342592592592595 38.488888888888894)"/><path d="M-454.14 300c0 11.05-8.96 20-20 20-11.05 0-20-8.95-20-20s8.95-20 20-20c11.04 0 20 8.95 20 20z" stroke="#5e5e5e" stroke-width="3"/><path d="M-474.14 323v14.88" stroke="#5e5e5e" stroke-width="3" fill="none"/><path d="M-474.2 321.5l1.56-.05v1.6h-3v-1.73" fill="#5e5e5e"/><path d="M-474.14 353.65l-4.64-14.27h9.27z" stroke="#5e5e5e" stroke-width="3" fill="#5e5e5e"/><path d="M-392.64 377.56h64.73M-392.6 377.56h-1.54" stroke="#5e5e5e" stroke-width="3" fill="none"/><path d="M-326.4 379.06h-1.55v-3h1.54" fill="#5e5e5e"/><path d="M-324.9 293.3c0-4.42 3.57-8 8-8h124c4.4 0 8 3.58 8 8v118c0 4.42-3.6 8-8 8h-124c-4.43 0-8-3.58-8-8z" stroke="#5e5e5e" stroke-width="3" fill="#fff" fill-opacity="0"/><use xlink:href="#b" transform="matrix(1,0,0,1,-319.91012397954563,290.30249411289975) translate(61.882716049382715 29.580555555555552)"/><use xlink:href="#c" transform="matrix(1,0,0,1,-319.91012397954563,290.30249411289975) translate(6.572222222222222 54.73611111111111)"/><use xlink:href="#d" transform="matrix(1,0,0,1,-319.91012397954563,290.30249411289975) translate(20.22222222222222 54.73611111111111)"/><use xlink:href="#e" transform="matrix(1,0,0,1,-319.91012397954563,290.30249411289975) translate(20.22222222222222 79.00277777777777)"/><use xlink:href="#f" transform="matrix(1,0,0,1,-319.91012397954563,290.30249411289975) translate(76.33888888888889 79.00277777777777)"/><use xlink:href="#g" transform="matrix(1,0,0,1,-319.91012397954563,290.30249411289975) translate(20.22222222222222 103.26944444444445)"/><use xlink:href="#h" transform="matrix(1,0,0,1,-319.91012397954563,290.30249411289975) translate(54.88086419753086 103.26944444444445)"/><path d="M-181.9 381.46h41.22c3.3 0 6 2.7 6 6V424c0 3.3-2.7 6-6 6l-207.1-.1h-25.4" stroke="#5e5e5e" stroke-width="3" fill="none"/><path d="M-181.87 382.96h-1.54v-3h1.53" fill="#5e5e5e"/><path d="M-388.94 429.9l14.27-4.63v9.27z" stroke="#5e5e5e" stroke-width="3" fill="#5e5e5e"/><path d="M-1480 306c0-3.3 2.7-6 6-6h728c3.3 0 6 2.7 6 6v148c0 3.3-2.7 6-6 6h-728c-3.3 0-6-2.7-6-6z" stroke="#000" stroke-opacity="0" fill="#fff" fill-opacity="0"/><g><use xlink:href="#i" transform="matrix(1,0,0,1,-1475,305) translate(9.822222222222221 24.177777777777777)"/><use xlink:href="#j" transform="matrix(1,0,0,1,-1475,305) translate(30.222222222222218 24.177777777777777)"/><use xlink:href="#k" transform="matrix(1,0,0,1,-1475,305) translate(181.16543209876542 24.177777777777777)"/><use xlink:href="#l" transform="matrix(1,0,0,1,-1475,305) translate(311.87654320987656 24.177777777777777)"/><use xlink:href="#m" transform="matrix(1,0,0,1,-1475,305) translate(350.40987654320986 24.177777777777777)"/><use xlink:href="#n" transform="matrix(1,0,0,1,-1475,305) translate(434.27654320987654 24.177777777777777)"/><use xlink:href="#o" transform="matrix(1,0,0,1,-1475,305) translate(501.3530864197531 24.177777777777777)"/><use xlink:href="#p" transform="matrix(1,0,0,1,-1475,305) translate(551.7234567901235 24.177777777777777)"/><use xlink:href="#q" transform="matrix(1,0,0,1,-1475,305) translate(603.520987654321 24.177777777777777)"/></g><defs><path fill="#333" d="M14 0l48-248h34L48 0H14" id="r"/><path fill="#333" d="M133-28C103 26-5 8 13-77c13-62 24-115 90-117 29-1 46 15 56 35l19-102h32L160 0h-30zM45-64c-2 27 10 43 35 43 54-1 69-50 69-103 0-29-15-46-42-46-53-1-58 58-62 106" id="s"/><path fill="#333" d="M6 0l50-261h32L37 0H6" id="t"/><path fill="#333" d="M111-194c62-3 86 47 72 106H45c-7 38 6 69 45 68 27-1 43-14 53-32l24 11C152-15 129 4 87 4 38 3 12-23 12-71c0-70 32-119 99-123zm44 81c14-66-71-72-95-28-4 8-8 17-11 28h106" id="u"/><g id="a"><use transform="matrix(0.06790123456790123,0,0,0.06790123456790123,0,0)" xlink:href="#r"/><use transform="matrix(0.06790123456790123,0,0,0.06790123456790123,6.790123456790123,0)" xlink:href="#s"/><use transform="matrix(0.06790123456790123,0,0,0.06790123456790123,20.37037037037037,0)" xlink:href="#t"/><use transform="matrix(0.06790123456790123,0,0,0.06790123456790123,25.734567901234566,0)" xlink:href="#u"/></g><path fill="#333" d="M0 4l72-265h28L28 4H0" id="v"/><use transform="matrix(0.06234567901234567,0,0,0.06234567901234567,0,0)" xlink:href="#v" id="b"/><path fill="#333" d="M62-168c30 0 50 19 50 48S92-70 62-70c-29 0-48-21-48-50s20-48 48-48" id="w"/><use transform="matrix(0.056172839506172835,0,0,0.056172839506172835,0,0)" xlink:href="#w" id="c"/><path fill="#333" d="M127-220V0H93v-220H8v-28h204v28h-85" id="x"/><path fill="#333" d="M114-163C36-179 61-72 57 0H25l-1-190h30c1 12-1 29 2 39 6-27 23-49 58-41v29" id="y"/><path fill="#333" d="M141-36C126-15 110 5 73 4 37 3 15-17 15-53c-1-64 63-63 125-63 3-35-9-54-41-54-24 1-41 7-42 31l-33-3c5-37 33-52 76-52 45 0 72 20 72 64v82c-1 20 7 32 28 27v20c-31 9-61-2-59-35zM48-53c0 20 12 33 32 33 41-3 63-29 60-74-43 2-92-5-92 41" id="z"/><path fill="#333" d="M117-194c89-4 53 116 60 194h-32v-121c0-31-8-49-39-48C34-167 62-67 57 0H25l-1-190h30c1 10-1 24 2 32 11-22 29-35 61-36" id="A"/><path fill="#333" d="M135-143c-3-34-86-38-87 0 15 53 115 12 119 90S17 21 10-45l28-5c4 36 97 45 98 0-10-56-113-15-118-90-4-57 82-63 122-42 12 7 21 19 24 35" id="B"/><path fill="#333" d="M210-169c-67 3-38 105-44 169h-31v-121c0-29-5-50-35-48C34-165 62-65 56 0H25l-1-190h30c1 10-1 24 2 32 10-44 99-50 107 0 11-21 27-35 58-36 85-2 47 119 55 194h-31v-121c0-29-5-49-35-48" id="C"/><path fill="#333" d="M24-231v-30h32v30H24zM24 0v-190h32V0H24" id="D"/><path fill="#333" d="M59-47c-2 24 18 29 38 22v24C64 9 27 4 27-40v-127H5v-23h24l9-43h21v43h35v23H59v120" id="E"/><g id="d"><use transform="matrix(0.056172839506172835,0,0,0.056172839506172835,0,0)" xlink:href="#x"/><use transform="matrix(0.056172839506172835,0,0,0.056172839506172835,11.571604938271603,0)" xlink:href="#y"/><use transform="matrix(0.056172839506172835,0,0,0.056172839506172835,18.25617283950617,0)" xlink:href="#z"/><use transform="matrix(0.056172839506172835,0,0,0.056172839506172835,29.490740740740737,0)" xlink:href="#A"/><use transform="matrix(0.056172839506172835,0,0,0.056172839506172835,40.7253086419753,0)" xlink:href="#B"/><use transform="matrix(0.056172839506172835,0,0,0.056172839506172835,50.83641975308642,0)" xlink:href="#C"/><use transform="matrix(0.056172839506172835,0,0,0.056172839506172835,67.63209876543209,0)" xlink:href="#D"/><use transform="matrix(0.056172839506172835,0,0,0.056172839506172835,72.06975308641974,0)" xlink:href="#E"/></g><path fill="#333" d="M100-194c63 0 86 42 84 106H49c0 40 14 67 53 68 26 1 43-12 49-29l28 8c-11 28-37 45-77 45C44 4 14-33 15-96c1-61 26-98 85-98zm52 81c6-60-76-77-97-28-3 7-6 17-6 28h103" id="F"/><g id="e"><use transform="matrix(0.056172839506172835,0,0,0.056172839506172835,0,0)" xlink:href="#A"/><use transform="matrix(0.056172839506172835,0,0,0.056172839506172835,11.234567901234566,0)" xlink:href="#z"/><use transform="matrix(0.056172839506172835,0,0,0.056172839506172835,22.469135802469133,0)" xlink:href="#C"/><use transform="matrix(0.056172839506172835,0,0,0.056172839506172835,39.26481481481481,0)" xlink:href="#F"/></g><path fill="#333" d="M100-194c62-1 85 37 85 99 1 63-27 99-86 99S16-35 15-95c0-66 28-99 85-99zM99-20c44 1 53-31 53-75 0-43-8-75-51-75s-53 32-53 75 10 74 51 75" id="G"/><path fill="#333" d="M108 0H70L1-190h34L89-25l56-165h34" id="H"/><g id="f"><use transform="matrix(0.056172839506172835,0,0,0.056172839506172835,0,0)" xlink:href="#G"/><use transform="matrix(0.056172839506172835,0,0,0.056172839506172835,11.234567901234566,0)" xlink:href="#H"/><use transform="matrix(0.056172839506172835,0,0,0.056172839506172835,21.345679012345677,0)" xlink:href="#F"/><use transform="matrix(0.056172839506172835,0,0,0.056172839506172835,32.58024691358024,0)" xlink:href="#y"/></g><path fill="#333" d="M206 0h-36l-40-164L89 0H53L-1-190h32L70-26l43-164h34l41 164 42-164h31" id="I"/><path fill="#333" d="M101-234c-31-9-42 10-38 44h38v23H63V0H32v-167H5v-23h27c-7-52 17-82 69-68v24" id="J"/><g id="g"><use transform="matrix(0.056172839506172835,0,0,0.056172839506172835,0,0)" xlink:href="#I"/><use transform="matrix(0.056172839506172835,0,0,0.056172839506172835,14.548765432098763,0)" xlink:href="#D"/><use transform="matrix(0.056172839506172835,0,0,0.056172839506172835,18.986419753086416,0)" xlink:href="#J"/><use transform="matrix(0.056172839506172835,0,0,0.056172839506172835,24.6037037037037,0)" xlink:href="#D"/></g><path fill="#333" d="M143 0L79-87 56-68V0H24v-261h32v163l83-92h37l-77 82L181 0h-38" id="K"/><g id="h"><use transform="matrix(0.056172839506172835,0,0,0.056172839506172835,0,0)" xlink:href="#A"/><use transform="matrix(0.056172839506172835,0,0,0.056172839506172835,11.234567901234566,0)" xlink:href="#F"/><use transform="matrix(0.056172839506172835,0,0,0.056172839506172835,22.469135802469133,0)" xlink:href="#E"/><use transform="matrix(0.056172839506172835,0,0,0.056172839506172835,28.086419753086417,0)" xlink:href="#I"/><use transform="matrix(0.056172839506172835,0,0,0.056172839506172835,42.63518518518518,0)" xlink:href="#G"/><use transform="matrix(0.056172839506172835,0,0,0.056172839506172835,53.86975308641975,0)" xlink:href="#y"/><use transform="matrix(0.056172839506172835,0,0,0.056172839506172835,60.554320987654314,0)" xlink:href="#K"/></g><path fill="#292929" d="M62-168c30 0 50 19 50 48S92-70 62-70c-29 0-48-21-48-50s20-48 48-48" id="L"/><use transform="matrix(0.0839506172839506,0,0,0.0839506172839506,0,0)" xlink:href="#L" id="i"/><path fill="#292929" d="M212-179c-10-28-35-45-73-45-59 0-87 40-87 99 0 60 29 101 89 101 43 0 62-24 78-52l27 14C228-24 195 4 139 4 59 4 22-46 18-125c-6-104 99-153 187-111 19 9 31 26 39 46" id="M"/><path fill="#292929" d="M100-194c62-1 85 37 85 99 1 63-27 99-86 99S16-35 15-95c0-66 28-99 85-99zM99-20c44 1 53-31 53-75 0-43-8-75-51-75s-53 32-53 75 10 74 51 75" id="N"/><path fill="#292929" d="M117-194c89-4 53 116 60 194h-32v-121c0-31-8-49-39-48C34-167 62-67 57 0H25l-1-190h30c1 10-1 24 2 32 11-22 29-35 61-36" id="O"/><path fill="#292929" d="M135-143c-3-34-86-38-87 0 15 53 115 12 119 90S17 21 10-45l28-5c4 36 97 45 98 0-10-56-113-15-118-90-4-57 82-63 122-42 12 7 21 19 24 35" id="P"/><path fill="#292929" d="M59-47c-2 24 18 29 38 22v24C64 9 27 4 27-40v-127H5v-23h24l9-43h21v43h35v23H59v120" id="Q"/><path fill="#292929" d="M141-36C126-15 110 5 73 4 37 3 15-17 15-53c-1-64 63-63 125-63 3-35-9-54-41-54-24 1-41 7-42 31l-33-3c5-37 33-52 76-52 45 0 72 20 72 64v82c-1 20 7 32 28 27v20c-31 9-61-2-59-35zM48-53c0 20 12 33 32 33 41-3 63-29 60-74-43 2-92-5-92 41" id="R"/><path fill="#292929" d="M24 0v-261h32V0H24" id="S"/><path fill="#292929" d="M179-190L93 31C79 59 56 82 12 73V49c39 6 53-20 64-50L1-190h34L92-34l54-156h33" id="T"/><g id="j"><use transform="matrix(0.0839506172839506,0,0,0.0839506172839506,0,0)" xlink:href="#M"/><use transform="matrix(0.0839506172839506,0,0,0.0839506172839506,21.743209876543208,0)" xlink:href="#N"/><use transform="matrix(0.0839506172839506,0,0,0.0839506172839506,38.53333333333333,0)" xlink:href="#O"/><use transform="matrix(0.0839506172839506,0,0,0.0839506172839506,55.32345679012345,0)" xlink:href="#P"/><use transform="matrix(0.0839506172839506,0,0,0.0839506172839506,70.43456790123456,0)" xlink:href="#Q"/><use transform="matrix(0.0839506172839506,0,0,0.0839506172839506,78.82962962962962,0)" xlink:href="#R"/><use transform="matrix(0.0839506172839506,0,0,0.0839506172839506,95.61975308641973,0)" xlink:href="#O"/><use transform="matrix(0.0839506172839506,0,0,0.0839506172839506,112.40987654320986,0)" xlink:href="#Q"/><use transform="matrix(0.0839506172839506,0,0,0.0839506172839506,120.80493827160493,0)" xlink:href="#S"/><use transform="matrix(0.0839506172839506,0,0,0.0839506172839506,127.43703703703702,0)" xlink:href="#T"/></g><path fill="#292929" d="M114-163C36-179 61-72 57 0H25l-1-190h30c1 12-1 29 2 39 6-27 23-49 58-41v29" id="U"/><path fill="#292929" d="M210-169c-67 3-38 105-44 169h-31v-121c0-29-5-50-35-48C34-165 62-65 56 0H25l-1-190h30c1 10-1 24 2 32 10-44 99-50 107 0 11-21 27-35 58-36 85-2 47 119 55 194h-31v-121c0-29-5-49-35-48" id="V"/><path fill="#292929" d="M24-231v-30h32v30H24zM24 0v-190h32V0H24" id="W"/><g id="k"><use transform="matrix(0.0839506172839506,0,0,0.0839506172839506,0,0)" xlink:href="#Q"/><use transform="matrix(0.0839506172839506,0,0,0.0839506172839506,8.39506172839506,0)" xlink:href="#U"/><use transform="matrix(0.0839506172839506,0,0,0.0839506172839506,18.385185185185183,0)" xlink:href="#R"/><use transform="matrix(0.0839506172839506,0,0,0.0839506172839506,35.175308641975306,0)" xlink:href="#O"/><use transform="matrix(0.0839506172839506,0,0,0.0839506172839506,51.965432098765426,0)" xlink:href="#P"/><use transform="matrix(0.0839506172839506,0,0,0.0839506172839506,67.07654320987653,0)" xlink:href="#V"/><use transform="matrix(0.0839506172839506,0,0,0.0839506172839506,92.17777777777776,0)" xlink:href="#W"/><use transform="matrix(0.0839506172839506,0,0,0.0839506172839506,98.80987654320987,0)" xlink:href="#Q"/><use transform="matrix(0.0839506172839506,0,0,0.0839506172839506,107.20493827160492,0)" xlink:href="#P"/></g><g id="l"><use transform="matrix(0.0839506172839506,0,0,0.0839506172839506,0,0)" xlink:href="#W"/><use transform="matrix(0.0839506172839506,0,0,0.0839506172839506,6.632098765432097,0)" xlink:href="#Q"/><use transform="matrix(0.0839506172839506,0,0,0.0839506172839506,15.027160493827159,0)" xlink:href="#P"/></g><path fill="#292929" d="M100-194c63 0 86 42 84 106H49c0 40 14 67 53 68 26 1 43-12 49-29l28 8c-11 28-37 45-77 45C44 4 14-33 15-96c1-61 26-98 85-98zm52 81c6-60-76-77-97-28-3 7-6 17-6 28h103" id="X"/><g id="m"><use transform="matrix(0.0839506172839506,0,0,0.0839506172839506,0,0)" xlink:href="#O"/><use transform="matrix(0.0839506172839506,0,0,0.0839506172839506,16.79012345679012,0)" xlink:href="#R"/><use transform="matrix(0.0839506172839506,0,0,0.0839506172839506,33.58024691358024,0)" xlink:href="#V"/><use transform="matrix(0.0839506172839506,0,0,0.0839506172839506,58.68148148148147,0)" xlink:href="#X"/></g><path fill="#292929" d="M108 0H70L1-190h34L89-25l56-165h34" id="Y"/><g id="n"><use transform="matrix(0.0839506172839506,0,0,0.0839506172839506,0,0)" xlink:href="#N"/><use transform="matrix(0.0839506172839506,0,0,0.0839506172839506,16.79012345679012,0)" xlink:href="#Y"/><use transform="matrix(0.0839506172839506,0,0,0.0839506172839506,31.901234567901223,0)" xlink:href="#X"/><use transform="matrix(0.0839506172839506,0,0,0.0839506172839506,48.691358024691354,0)" xlink:href="#U"/></g><path fill="#292929" d="M106-169C34-169 62-67 57 0H25v-261h32l-1 103c12-21 28-36 61-36 89 0 53 116 60 194h-32v-121c2-32-8-49-39-48" id="Z"/><g id="o"><use transform="matrix(0.0839506172839506,0,0,0.0839506172839506,0,0)" xlink:href="#Q"/><use transform="matrix(0.0839506172839506,0,0,0.0839506172839506,8.39506172839506,0)" xlink:href="#Z"/><use transform="matrix(0.0839506172839506,0,0,0.0839506172839506,25.18518518518518,0)" xlink:href="#X"/></g><path fill="#292929" d="M206 0h-36l-40-164L89 0H53L-1-190h32L70-26l43-164h34l41 164 42-164h31" id="aa"/><path fill="#292929" d="M101-234c-31-9-42 10-38 44h38v23H63V0H32v-167H5v-23h27c-7-52 17-82 69-68v24" id="ab"/><g id="p"><use transform="matrix(0.0839506172839506,0,0,0.0839506172839506,0,0)" xlink:href="#aa"/><use transform="matrix(0.0839506172839506,0,0,0.0839506172839506,21.743209876543208,0)" xlink:href="#W"/><use transform="matrix(0.0839506172839506,0,0,0.0839506172839506,28.375308641975305,0)" xlink:href="#ab"/><use transform="matrix(0.0839506172839506,0,0,0.0839506172839506,36.770370370370365,0)" xlink:href="#W"/></g><path fill="#292929" d="M143 0L79-87 56-68V0H24v-261h32v163l83-92h37l-77 82L181 0h-38" id="ac"/><path fill="#292929" d="M33 0v-38h34V0H33" id="ad"/><g id="q"><use transform="matrix(0.0839506172839506,0,0,0.0839506172839506,0,0)" xlink:href="#O"/><use transform="matrix(0.0839506172839506,0,0,0.0839506172839506,16.79012345679012,0)" xlink:href="#X"/><use transform="matrix(0.0839506172839506,0,0,0.0839506172839506,33.58024691358024,0)" xlink:href="#Q"/><use transform="matrix(0.0839506172839506,0,0,0.0839506172839506,41.9753086419753,0)" xlink:href="#aa"/><use transform="matrix(0.0839506172839506,0,0,0.0839506172839506,63.71851851851851,0)" xlink:href="#N"/><use transform="matrix(0.0839506172839506,0,0,0.0839506172839506,80.50864197530862,0)" xlink:href="#U"/><use transform="matrix(0.0839506172839506,0,0,0.0839506172839506,90.49876543209874,0)" xlink:href="#ac"/><use transform="matrix(0.0839506172839506,0,0,0.0839506172839506,105.60987654320984,0)" xlink:href="#ad"/></g></defs></g></svg>