<svg xmlns="http://www.w3.org/2000/svg" xmlns:xlink="http://www.w3.org/1999/xlink" xmlns:lucid="lucid" width="1722" height="568"><g transform="translate(1720 1086)" lucid:page-tab-id="0_0"><path d="M-538.14-940c-8.84 0-16 7.16-16 16v48c0 8.84 7.16 16 16 16h128c8.83 0 16-7.16 16-16v-48c0-8.84-7.17-16-16-16z" stroke="#5e5e5e" stroke-width="3" fill="#00b098"/><use xlink:href="#a" transform="matrix(1,0,0,1,-546.1443362721348,-932) translate(52.342592592592595 38.488888888888894)"/><path d="M-454.14-1000c0 11.05-8.96 20-20 20-11.05 0-20-8.95-20-20s8.95-20 20-20c11.04 0 20 8.95 20 20z" stroke="#5e5e5e" stroke-width="3"/><path d="M-474.14-977v14.88" stroke="#5e5e5e" stroke-width="3" fill="none"/><path d="M-474.2-978.5l1.56-.05v1.6h-3v-1.73" fill="#5e5e5e"/><path d="M-474.14-946.35l-4.64-14.27h9.27z" stroke="#5e5e5e" stroke-width="3" fill="#5e5e5e"/><path d="M-538.14-637.8c-8.84 0-16 7.16-16 16v48c0 8.84 7.16 16 16 16h128c8.83 0 16-7.16 16-16v-48c0-8.84-7.17-16-16-16z" stroke="#5e5e5e" stroke-width="3" fill="#00c2a8"/><use xlink:href="#b" transform="matrix(1,0,0,1,-546.1443362721348,-629.8) translate(22.015740740740746 36.93333333333334)"/><use xlink:href="#c" transform="matrix(1,0,0,1,-546.1443362721348,-629.8) translate(94.57685185185184 36.93333333333334)"/><path d="M-554.14-812c0-4.42 3.58-8 8-8h144c4.4 0 8 3.58 8 8v124c0 4.42-3.6 8-8 8h-144c-4.42 0-8-3.58-8-8z" stroke="#5e5e5e" stroke-width="3" fill="#fff" fill-opacity="0"/><use xlink:href="#d" transform="matrix(1,0,0,1,-549.144336272135,-815) translate(11.721296296296302 20.240277777777777)"/><use xlink:href="#e" transform="matrix(1,0,0,1,-549.144336272135,-815) translate(72.16327160493827 20.240277777777777)"/><use xlink:href="#f" transform="matrix(1,0,0,1,-549.144336272135,-815) translate(96.76697530864197 20.240277777777777)"/><use xlink:href="#g" transform="matrix(1,0,0,1,-549.144336272135,-815) translate(4.868209876543219 44.50694444444444)"/><use xlink:href="#h" transform="matrix(1,0,0,1,-549.144336272135,-815) translate(76.6570987654321 44.50694444444444)"/><use xlink:href="#i" transform="matrix(1,0,0,1,-549.144336272135,-815) translate(39.6391975308642 68.77361111111111)"/><use xlink:href="#j" transform="matrix(1,0,0,1,-549.144336272135,-815) translate(56.49104938271605 68.77361111111111)"/><use xlink:href="#k" transform="matrix(1,0,0,1,-549.144336272135,-815) translate(104.74351851851853 68.77361111111111)"/><use xlink:href="#l" transform="matrix(1,0,0,1,-549.144336272135,-815) translate(6.572222222222222 93.04027777777777)"/><use xlink:href="#m" transform="matrix(1,0,0,1,-549.144336272135,-815) translate(20.22222222222222 93.04027777777777)"/><use xlink:href="#n" transform="matrix(1,0,0,1,-549.144336272135,-815) translate(79.70925925925926 93.04027777777777)"/><use xlink:href="#o" transform="matrix(1,0,0,1,-549.144336272135,-815) translate(124.64753086419752 93.04027777777777)"/><use xlink:href="#l" transform="matrix(1,0,0,1,-549.144336272135,-815) translate(6.572222222222222 117.30694444444444)"/><use xlink:href="#m" transform="matrix(1,0,0,1,-549.144336272135,-815) translate(20.22222222222222 117.30694444444444)"/><use xlink:href="#p" transform="matrix(1,0,0,1,-549.144336272135,-815) translate(79.70925925925926 117.30694444444444)"/><use xlink:href="#q" transform="matrix(1,0,0,1,-549.144336272135,-815) translate(122.40061728395062 117.30694444444444)"/><path d="M-474.14-857v34" stroke="#5e5e5e" stroke-width="3" fill="none"/><path d="M-472.64-856.96h-3v-1.54h3M-472.64-821.5h-3v-1.54h3" fill="#5e5e5e"/><path d="M-474.14-677v17.08" stroke="#5e5e5e" stroke-width="3" fill="none"/><path d="M-472.64-676.96h-3v-1.54h3" fill="#5e5e5e"/><path d="M-474.14-644.16l-4.64-14.26h9.27z" stroke="#5e5e5e" stroke-width="3" fill="#5e5e5e"/><path d="M-860-812c0-4.42 3.58-8 8-8h183.5c4.43 0 8 3.58 8 8v124c0 4.42-3.57 8-8 8H-852c-4.42 0-8-3.58-8-8z" stroke="#5e5e5e" stroke-width="3" fill="#fff" fill-opacity="0"/><g><use xlink:href="#r" transform="matrix(1,0,0,1,-855,-815) translate(0.29259259259259807 20.240277777777777)"/><use xlink:href="#s" transform="matrix(1,0,0,1,-855,-815) translate(50.79197530864198 20.240277777777777)"/><use xlink:href="#t" transform="matrix(1,0,0,1,-855,-815) translate(73.26111111111112 20.240277777777777)"/><use xlink:href="#u" transform="matrix(1,0,0,1,-855,-815) translate(110.16666666666667 20.240277777777777)"/><use xlink:href="#v" transform="matrix(1,0,0,1,-855,-815) translate(134.77037037037036 20.240277777777777)"/><use xlink:href="#u" transform="matrix(1,0,0,1,-855,-815) translate(4.308950617283955 44.50694444444444)"/><use xlink:href="#w" transform="matrix(1,0,0,1,-855,-815) translate(28.912654320987656 44.50694444444444)"/><use xlink:href="#x" transform="matrix(1,0,0,1,-855,-815) translate(64.75092592592591 44.50694444444444)"/><use xlink:href="#u" transform="matrix(1,0,0,1,-855,-815) translate(119.5756172839506 44.50694444444444)"/><use xlink:href="#f" transform="matrix(1,0,0,1,-855,-815) translate(144.1793209876543 44.50694444444444)"/><use xlink:href="#y" transform="matrix(1,0,0,1,-855,-815) translate(56.29691358024692 68.77361111111111)"/><use xlink:href="#k" transform="matrix(1,0,0,1,-855,-815) translate(128.08580246913579 68.77361111111111)"/><use xlink:href="#l" transform="matrix(1,0,0,1,-855,-815) translate(6.572222222222222 93.04027777777777)"/><use xlink:href="#m" transform="matrix(1,0,0,1,-855,-815) translate(20.22222222222222 93.04027777777777)"/><use xlink:href="#n" transform="matrix(1,0,0,1,-855,-815) translate(79.70925925925926 93.04027777777777)"/><use xlink:href="#z" transform="matrix(1,0,0,1,-855,-815) translate(124.64753086419752 93.04027777777777)"/><use xlink:href="#l" transform="matrix(1,0,0,1,-855,-815) translate(6.572222222222222 117.30694444444444)"/><use xlink:href="#m" transform="matrix(1,0,0,1,-855,-815) translate(20.22222222222222 117.30694444444444)"/><use xlink:href="#p" transform="matrix(1,0,0,1,-855,-815) translate(79.70925925925926 117.30694444444444)"/><use xlink:href="#A" transform="matrix(1,0,0,1,-855,-815) translate(122.40061728395062 117.30694444444444)"/></g><path d="M-557.14-597.8h-197.1c-3.32 0-6-2.7-6-6V-677" stroke="#5e5e5e" stroke-width="3" fill="none"/><path d="M-555.64-596.3h-1.54v-3h1.54M-758.74-676.96h-3v-1.54h3" fill="#5e5e5e"/><path d="M-760.24-823v-71c0-3.3 2.68-6 6-6h177.98" stroke="#5e5e5e" stroke-width="3" fill="none"/><path d="M-758.74-821.5h-3v-1.54h3" fill="#5e5e5e"/><path d="M-560.5-900l-14.26 4.64v-9.28z" stroke="#5e5e5e" stroke-width="3" fill="#5e5e5e"/><path d="M-1660-1014c0-3.3 2.7-6 6-6h728c3.3 0 6 2.7 6 6v228c0 3.3-2.7 6-6 6h-728c-3.3 0-6-2.7-6-6z" stroke="#000" stroke-opacity="0" fill="#fff" fill-opacity="0"/><g><use xlink:href="#B" transform="matrix(1,0,0,1,-1655,-1015) translate(9.822222222222221 24.177777777777777)"/><use xlink:href="#C" transform="matrix(1,0,0,1,-1655,-1015) translate(30.222222222222218 24.177777777777777)"/><use xlink:href="#D" transform="matrix(1,0,0,1,-1655,-1015) translate(117.44691358024689 24.177777777777777)"/><use xlink:href="#E" transform="matrix(1,0,0,1,-1655,-1015) translate(142.63209876543206 24.177777777777777)"/><use xlink:href="#F" transform="matrix(1,0,0,1,-1655,-1015) translate(209.70864197530858 24.177777777777777)"/><use xlink:href="#G" transform="matrix(1,0,0,1,-1655,-1015) translate(399.26913580246907 24.177777777777777)"/><use xlink:href="#H" transform="matrix(1,0,0,1,-1655,-1015) translate(456.27160493827154 24.177777777777777)"/><use xlink:href="#I" transform="matrix(1,0,0,1,-1655,-1015) translate(506.6419753086419 24.177777777777777)"/><use xlink:href="#J" transform="matrix(1,0,0,1,-1655,-1015) translate(592.1876543209876 24.177777777777777)"/><use xlink:href="#K" transform="matrix(1,0,0,1,-1655,-1015) translate(625.7679012345678 24.177777777777777)"/><use xlink:href="#L" transform="matrix(1,0,0,1,-1655,-1015) translate(30.222222222222218 60.44444444444444)"/><use xlink:href="#J" transform="matrix(1,0,0,1,-1655,-1015) translate(95.53580246913577 60.44444444444444)"/><use xlink:href="#M" transform="matrix(1,0,0,1,-1655,-1015) translate(129.11604938271603 60.44444444444444)"/><use xlink:href="#N" transform="matrix(1,0,0,1,-1655,-1015) translate(201.14567901234562 60.44444444444444)"/><use xlink:href="#H" transform="matrix(1,0,0,1,-1655,-1015) translate(306.83950617283944 60.44444444444444)"/><use xlink:href="#O" transform="matrix(1,0,0,1,-1655,-1015) translate(357.2098765432098 60.44444444444444)"/><use xlink:href="#J" transform="matrix(1,0,0,1,-1655,-1015) translate(420.8444444444444 60.44444444444444)"/><use xlink:href="#H" transform="matrix(1,0,0,1,-1655,-1015) translate(454.42469135802463 60.44444444444444)"/><use xlink:href="#P" transform="matrix(1,0,0,1,-1655,-1015) translate(504.795061728395 60.44444444444444)"/><use xlink:href="#Q" transform="matrix(1,0,0,1,-1655,-1015) translate(571.8716049382715 60.44444444444444)"/><use xlink:href="#R" transform="matrix(1,0,0,1,-1655,-1015) translate(637.1851851851851 60.44444444444444)"/><use xlink:href="#S" transform="matrix(1,0,0,1,-1655,-1015) translate(30.222222222222218 96.71111111111111)"/><use xlink:href="#T" transform="matrix(1,0,0,1,-1655,-1015) translate(62.039506172839495 96.71111111111111)"/><use xlink:href="#U" transform="matrix(1,0,0,1,-1655,-1015) translate(120.80493827160491 96.71111111111111)"/><use xlink:href="#V" transform="matrix(1,0,0,1,-1655,-1015) translate(199.71851851851847 96.71111111111111)"/><use xlink:href="#W" transform="matrix(1,0,0,1,-1655,-1015) translate(0 132.97777777777776)"/><use xlink:href="#B" transform="matrix(1,0,0,1,-1655,-1015) translate(9.822222222222221 169.24444444444444)"/><use xlink:href="#X" transform="matrix(1,0,0,1,-1655,-1015) translate(30.222222222222218 169.24444444444444)"/><use xlink:href="#Y" transform="matrix(1,0,0,1,-1655,-1015) translate(73.87654320987653 169.24444444444444)"/><use xlink:href="#Z" transform="matrix(1,0,0,1,-1655,-1015) translate(147.75308641975306 169.24444444444444)"/><use xlink:href="#H" transform="matrix(1,0,0,1,-1655,-1015) translate(188.04938271604937 169.24444444444444)"/><use xlink:href="#E" transform="matrix(1,0,0,1,-1655,-1015) translate(238.41975308641975 169.24444444444444)"/><use xlink:href="#aa" transform="matrix(1,0,0,1,-1655,-1015) translate(305.4962962962963 169.24444444444444)"/><use xlink:href="#ab" transform="matrix(1,0,0,1,-1655,-1015) translate(389.279012345679 169.24444444444444)"/><use xlink:href="#J" transform="matrix(1,0,0,1,-1655,-1015) translate(439.6493827160494 169.24444444444444)"/><use xlink:href="#I" transform="matrix(1,0,0,1,-1655,-1015) translate(473.22962962962964 169.24444444444444)"/><use xlink:href="#H" transform="matrix(1,0,0,1,-1655,-1015) translate(558.7753086419752 169.24444444444444)"/><use xlink:href="#ac" transform="matrix(1,0,0,1,-1655,-1015) translate(609.1456790123456 169.24444444444444)"/><use xlink:href="#Q" transform="matrix(1,0,0,1,-1655,-1015) translate(30.222222222222218 205.5111111111111)"/><use xlink:href="#ad" transform="matrix(1,0,0,1,-1655,-1015) translate(95.53580246913579 205.5111111111111)"/><use xlink:href="#ab" transform="matrix(1,0,0,1,-1655,-1015) translate(177.80740740740737 205.5111111111111)"/><use xlink:href="#T" transform="matrix(1,0,0,1,-1655,-1015) translate(228.17777777777775 205.5111111111111)"/><use xlink:href="#U" transform="matrix(1,0,0,1,-1655,-1015) translate(286.94320987654316 205.5111111111111)"/><use xlink:href="#ae" transform="matrix(1,0,0,1,-1655,-1015) translate(365.85679012345673 205.5111111111111)"/><use xlink:href="#af" transform="matrix(1,0,0,1,-1655,-1015) translate(0 241.77777777777774)"/></g><defs><path fill="#333" d="M14 0l48-248h34L48 0H14" id="ag"/><path fill="#333" d="M133-28C103 26-5 8 13-77c13-62 24-115 90-117 29-1 46 15 56 35l19-102h32L160 0h-30zM45-64c-2 27 10 43 35 43 54-1 69-50 69-103 0-29-15-46-42-46-53-1-58 58-62 106" id="ah"/><path fill="#333" d="M6 0l50-261h32L37 0H6" id="ai"/><path fill="#333" d="M111-194c62-3 86 47 72 106H45c-7 38 6 69 45 68 27-1 43-14 53-32l24 11C152-15 129 4 87 4 38 3 12-23 12-71c0-70 32-119 99-123zm44 81c14-66-71-72-95-28-4 8-8 17-11 28h106" id="aj"/><g id="a"><use transform="matrix(0.06790123456790123,0,0,0.06790123456790123,0,0)" xlink:href="#ag"/><use transform="matrix(0.06790123456790123,0,0,0.06790123456790123,6.790123456790123,0)" xlink:href="#ah"/><use transform="matrix(0.06790123456790123,0,0,0.06790123456790123,20.37037037037037,0)" xlink:href="#ai"/><use transform="matrix(0.06790123456790123,0,0,0.06790123456790123,25.734567901234566,0)" xlink:href="#aj"/></g><path fill="#333" d="M11 0l48-248h34L50-27h125l-5 27H11" id="ak"/><path fill="#333" d="M50-231l6-30h32l-6 30H50zM6 0l37-190h31L37 0H6" id="al"/><path fill="#333" d="M103-194c29 0 47 14 56 36 2-11 5-23 8-32h30L160-5C157 61 82 97 21 62 9 55 4 45 1 30l28-7c7 42 83 31 92-3 4-16 9-38 13-55-13 20-29 36-62 36-40 0-60-25-60-64 0-71 23-131 91-131zm4 24c-53 0-58 54-61 104-2 27 10 44 36 44 49 0 65-50 67-102 1-29-15-46-42-46" id="am"/><path fill="#333" d="M67-158c15-20 31-36 64-36 94 0 33 127 27 194h-32l25-140c3-38-53-32-70-12C52-117 51-51 37 0H6l51-261h31" id="an"/><path fill="#333" d="M51-54c-9 22 5 41 31 30L79-1C43 14 10-4 19-52l22-115H19l5-23h22l19-43h21l-9 43h35l-4 23H73" id="ao"/><path fill="#333" d="M55-144c13 50 104 24 104 88C159 21 15 23 1-39l26-10c6 40 102 42 102-4-13-50-104-23-104-87 0-71 143-71 148-8l-29 4c-5-35-85-37-89 0" id="ap"/><g id="b"><use transform="matrix(0.06851851851851852,0,0,0.06851851851851852,0,0)" xlink:href="#ak"/><use transform="matrix(0.06851851851851852,0,0,0.06851851851851852,13.703703703703704,0)" xlink:href="#al"/><use transform="matrix(0.06851851851851852,0,0,0.06851851851851852,19.116666666666667,0)" xlink:href="#am"/><use transform="matrix(0.06851851851851852,0,0,0.06851851851851852,32.82037037037037,0)" xlink:href="#an"/><use transform="matrix(0.06851851851851852,0,0,0.06851851851851852,46.52407407407407,0)" xlink:href="#ao"/><use transform="matrix(0.06851851851851852,0,0,0.06851851851851852,53.37592592592593,0)" xlink:href="#ap"/></g><path fill="#333" d="M30-147c31-64 166-65 159 27C183-49 158 1 86 4 9 8 1-88 30-147zM88-20c53 0 68-48 68-100 0-31-11-51-44-50-52 1-68 46-68 97 0 32 13 53 44 53" id="aq"/><path fill="#333" d="M67-158c22-48 132-52 116 29L158 0h-32l25-140c3-38-53-32-70-12C52-117 51-52 38 0H6l36-190h30" id="ar"/><g id="c"><use transform="matrix(0.06851851851851852,0,0,0.06851851851851852,0,0)" xlink:href="#aq"/><use transform="matrix(0.06851851851851852,0,0,0.06851851851851852,13.703703703703704,0)" xlink:href="#ar"/></g><path fill="#333" d="M76-208v77h127v40H76V0H24v-248h183v40H76" id="as"/><path fill="#333" d="M25 0v-261h50V0H25" id="at"/><path fill="#333" d="M25-224v-37h50v37H25zM25 0v-190h50V0H25" id="au"/><path fill="#333" d="M195-6C206 82 75 100 31 46c-4-6-6-13-8-21l49-6c3 16 16 24 34 25 40 0 42-37 40-79-11 22-30 35-61 35-53 0-70-43-70-97 0-56 18-96 73-97 30 0 46 14 59 34l2-30h47zm-90-29c32 0 41-27 41-63 0-35-9-62-40-62-32 0-39 29-40 63 0 36 9 62 39 62" id="av"/><path fill="#333" d="M114-157C55-157 80-60 75 0H25v-261h50l-1 109c12-26 28-41 61-42 86-1 58 113 63 194h-50c-7-57 23-157-34-157" id="aw"/><path fill="#333" d="M115-3C79 11 28 4 28-45v-112H4v-33h27l15-45h31v45h36v33H77v99c-1 23 16 31 38 25v30" id="ax"/><g id="d"><use transform="matrix(0.056172839506172835,0,0,0.056172839506172835,0,0)" xlink:href="#as"/><use transform="matrix(0.056172839506172835,0,0,0.056172839506172835,12.30185185185185,0)" xlink:href="#at"/><use transform="matrix(0.056172839506172835,0,0,0.056172839506172835,17.919135802469135,0)" xlink:href="#au"/><use transform="matrix(0.056172839506172835,0,0,0.056172839506172835,23.53641975308642,0)" xlink:href="#av"/><use transform="matrix(0.056172839506172835,0,0,0.056172839506172835,35.83827160493827,0)" xlink:href="#aw"/><use transform="matrix(0.056172839506172835,0,0,0.056172839506172835,48.14012345679012,0)" xlink:href="#ax"/></g><path fill="#333" d="M110-194c64 0 96 36 96 99 0 64-35 99-97 99-61 0-95-36-95-99 0-62 34-99 96-99zm-1 164c35 0 45-28 45-65 0-40-10-65-43-65-34 0-45 26-45 65 0 36 10 65 43 65" id="ay"/><path fill="#333" d="M121-226c-27-7-43 5-38 36h38v33H83V0H34v-157H6v-33h28c-9-59 32-81 87-68v32" id="az"/><g id="e"><use transform="matrix(0.056172839506172835,0,0,0.056172839506172835,0,0)" xlink:href="#ay"/><use transform="matrix(0.056172839506172835,0,0,0.056172839506172835,12.30185185185185,0)" xlink:href="#az"/></g><path fill="#333" d="M220-157c-53 9-28 100-34 157h-49v-107c1-27-5-49-29-50C55-147 81-57 75 0H25l-1-190h47c2 12-1 28 3 38 10-53 101-56 108 0 13-22 24-43 59-42 82 1 51 116 57 194h-49v-107c-1-25-5-48-29-50" id="aA"/><path fill="#333" d="M185-48c-13 30-37 53-82 52C43 2 14-33 14-96s30-98 90-98c62 0 83 45 84 108H66c0 31 8 55 39 56 18 0 30-7 34-22zm-45-69c5-46-57-63-70-21-2 6-4 13-4 21h74" id="aB"/><g id="f"><use transform="matrix(0.056172839506172835,0,0,0.056172839506172835,0,0)" xlink:href="#ax"/><use transform="matrix(0.056172839506172835,0,0,0.056172839506172835,6.684567901234567,0)" xlink:href="#au"/><use transform="matrix(0.056172839506172835,0,0,0.056172839506172835,12.30185185185185,0)" xlink:href="#aA"/><use transform="matrix(0.056172839506172835,0,0,0.056172839506172835,30.277160493827157,0)" xlink:href="#aB"/></g><path fill="#333" d="M137-138c1-29-70-34-71-4 15 46 118 7 119 86 1 83-164 76-172 9l43-7c4 19 20 25 44 25 33 8 57-30 24-41C81-84 22-81 20-136c-2-80 154-74 161-7" id="aC"/><path fill="#333" d="M135-194c87-1 58 113 63 194h-50c-7-57 23-157-34-157-59 0-34 97-39 157H25l-1-190h47c2 12-1 28 3 38 12-26 28-41 61-42" id="aD"/><path fill="#333" d="M135-150c-39-12-60 13-60 57V0H25l-1-190h47c2 13-1 29 3 40 6-28 27-53 61-41v41" id="aE"/><g id="g"><use transform="matrix(0.056172839506172835,0,0,0.056172839506172835,0,0)" xlink:href="#aC"/><use transform="matrix(0.056172839506172835,0,0,0.056172839506172835,11.234567901234566,0)" xlink:href="#aB"/><use transform="matrix(0.056172839506172835,0,0,0.056172839506172835,22.469135802469133,0)" xlink:href="#aD"/><use transform="matrix(0.056172839506172835,0,0,0.056172839506172835,34.77098765432098,0)" xlink:href="#aC"/><use transform="matrix(0.056172839506172835,0,0,0.056172839506172835,46.005555555555546,0)" xlink:href="#ay"/><use transform="matrix(0.056172839506172835,0,0,0.056172839506172835,58.30740740740739,0)" xlink:href="#aE"/></g><g id="h"><use transform="matrix(0.056172839506172835,0,0,0.056172839506172835,0,0)" xlink:href="#aC"/><use transform="matrix(0.056172839506172835,0,0,0.056172839506172835,11.234567901234566,0)" xlink:href="#aB"/><use transform="matrix(0.056172839506172835,0,0,0.056172839506172835,22.469135802469133,0)" xlink:href="#aD"/><use transform="matrix(0.056172839506172835,0,0,0.056172839506172835,34.77098765432098,0)" xlink:href="#aC"/><use transform="matrix(0.056172839506172835,0,0,0.056172839506172835,46.005555555555546,0)" xlink:href="#aB"/><use transform="matrix(0.056172839506172835,0,0,0.056172839506172835,57.240123456790116,0)" xlink:href="#aC"/></g><path fill="#333" d="M133-34C117-15 103 5 69 4 32 3 11-16 11-54c-1-60 55-63 116-61 1-26-3-47-28-47-18 1-26 9-28 27l-52-2c7-38 36-58 82-57s74 22 75 68l1 82c-1 14 12 18 25 15v27c-30 8-71 5-69-32zm-48 3c29 0 43-24 42-57-32 0-66-3-65 30 0 17 8 27 23 27" id="aF"/><use transform="matrix(0.056172839506172835,0,0,0.056172839506172835,0,0)" xlink:href="#aF" id="i"/><path fill="#333" d="M85 4C-2 5 27-109 22-190h50c7 57-23 150 33 157 60-5 35-97 40-157h50l1 190h-47c-2-12 1-28-3-38-12 25-28 42-61 42" id="aG"/><g id="j"><use transform="matrix(0.056172839506172835,0,0,0.056172839506172835,0,0)" xlink:href="#aG"/><use transform="matrix(0.056172839506172835,0,0,0.056172839506172835,12.30185185185185,0)" xlink:href="#aC"/><use transform="matrix(0.056172839506172835,0,0,0.056172839506172835,23.536419753086417,0)" xlink:href="#aB"/><use transform="matrix(0.056172839506172835,0,0,0.056172839506172835,34.77098765432098,0)" xlink:href="#aE"/></g><path fill="#333" d="M0 4l72-265h28L28 4H0" id="aH"/><use transform="matrix(0.056172839506172835,0,0,0.056172839506172835,0,0)" xlink:href="#aH" id="k"/><path fill="#333" d="M62-168c30 0 50 19 50 48S92-70 62-70c-29 0-48-21-48-50s20-48 48-48" id="aI"/><use transform="matrix(0.056172839506172835,0,0,0.056172839506172835,0,0)" xlink:href="#aI" id="l"/><path fill="#333" d="M30 0v-248h33v221h125V0H30" id="aJ"/><path fill="#333" d="M24-231v-30h32v30H24zM24 0v-190h32V0H24" id="aK"/><path fill="#333" d="M177-190C167-65 218 103 67 71c-23-6-38-20-44-43l32-5c15 47 100 32 89-28v-30C133-14 115 1 83 1 29 1 15-40 15-95c0-56 16-97 71-98 29-1 48 16 59 35 1-10 0-23 2-32h30zM94-22c36 0 50-32 50-73 0-42-14-75-50-75-39 0-46 34-46 75s6 73 46 73" id="aL"/><path fill="#333" d="M106-169C34-169 62-67 57 0H25v-261h32l-1 103c12-21 28-36 61-36 89 0 53 116 60 194h-32v-121c2-32-8-49-39-48" id="aM"/><path fill="#333" d="M59-47c-2 24 18 29 38 22v24C64 9 27 4 27-40v-127H5v-23h24l9-43h21v43h35v23H59v120" id="aN"/><path fill="#333" d="M135-143c-3-34-86-38-87 0 15 53 115 12 119 90S17 21 10-45l28-5c4 36 97 45 98 0-10-56-113-15-118-90-4-57 82-63 122-42 12 7 21 19 24 35" id="aO"/><g id="m"><use transform="matrix(0.056172839506172835,0,0,0.056172839506172835,0,0)" xlink:href="#aJ"/><use transform="matrix(0.056172839506172835,0,0,0.056172839506172835,11.234567901234566,0)" xlink:href="#aK"/><use transform="matrix(0.056172839506172835,0,0,0.056172839506172835,15.67222222222222,0)" xlink:href="#aL"/><use transform="matrix(0.056172839506172835,0,0,0.056172839506172835,26.906790123456787,0)" xlink:href="#aM"/><use transform="matrix(0.056172839506172835,0,0,0.056172839506172835,38.14135802469136,0)" xlink:href="#aN"/><use transform="matrix(0.056172839506172835,0,0,0.056172839506172835,43.75864197530864,0)" xlink:href="#aO"/></g><path fill="#333" d="M101-234c-31-9-42 10-38 44h38v23H63V0H32v-167H5v-23h27c-7-52 17-82 69-68v24" id="aP"/><path fill="#333" d="M141-36C126-15 110 5 73 4 37 3 15-17 15-53c-1-64 63-63 125-63 3-35-9-54-41-54-24 1-41 7-42 31l-33-3c5-37 33-52 76-52 45 0 72 20 72 64v82c-1 20 7 32 28 27v20c-31 9-61-2-59-35zM48-53c0 20 12 33 32 33 41-3 63-29 60-74-43 2-92-5-92 41" id="aQ"/><path fill="#333" d="M85-194c31 0 48 13 60 33l-1-100h32l1 261h-30c-2-10 0-23-3-31C134-8 116 4 85 4 32 4 16-35 15-94c0-66 23-100 70-100zm9 24c-40 0-46 34-46 75 0 40 6 74 45 74 42 0 51-32 51-76 0-42-9-74-50-73" id="aR"/><path fill="#333" d="M100-194c63 0 86 42 84 106H49c0 40 14 67 53 68 26 1 43-12 49-29l28 8c-11 28-37 45-77 45C44 4 14-33 15-96c1-61 26-98 85-98zm52 81c6-60-76-77-97-28-3 7-6 17-6 28h103" id="aS"/><g id="n"><use transform="matrix(0.056172839506172835,0,0,0.056172839506172835,0,0)" xlink:href="#aP"/><use transform="matrix(0.056172839506172835,0,0,0.056172839506172835,5.617283950617283,0)" xlink:href="#aQ"/><use transform="matrix(0.056172839506172835,0,0,0.056172839506172835,16.851851851851848,0)" xlink:href="#aR"/><use transform="matrix(0.056172839506172835,0,0,0.056172839506172835,28.086419753086414,0)" xlink:href="#aS"/></g><path fill="#333" d="M117-194c89-4 53 116 60 194h-32v-121c0-31-8-49-39-48C34-167 62-67 57 0H25l-1-190h30c1 10-1 24 2 32 11-22 29-35 61-36" id="aT"/><g id="o"><use transform="matrix(0.056172839506172835,0,0,0.056172839506172835,0,0)" xlink:href="#aK"/><use transform="matrix(0.056172839506172835,0,0,0.056172839506172835,4.4376543209876536,0)" xlink:href="#aT"/></g><path fill="#333" d="M179-190L93 31C79 59 56 82 12 73V49c39 6 53-20 64-50L1-190h34L92-34l54-156h33" id="aU"/><g id="p"><use transform="matrix(0.056172839506172835,0,0,0.056172839506172835,0,0)" xlink:href="#aO"/><use transform="matrix(0.056172839506172835,0,0,0.056172839506172835,10.11111111111111,0)" xlink:href="#aN"/><use transform="matrix(0.056172839506172835,0,0,0.056172839506172835,15.728395061728394,0)" xlink:href="#aQ"/><use transform="matrix(0.056172839506172835,0,0,0.056172839506172835,26.962962962962962,0)" xlink:href="#aU"/></g><path fill="#333" d="M100-194c62-1 85 37 85 99 1 63-27 99-86 99S16-35 15-95c0-66 28-99 85-99zM99-20c44 1 53-31 53-75 0-43-8-75-51-75s-53 32-53 75 10 74 51 75" id="aV"/><g id="q"><use transform="matrix(0.056172839506172835,0,0,0.056172839506172835,0,0)" xlink:href="#aV"/><use transform="matrix(0.056172839506172835,0,0,0.056172839506172835,11.234567901234566,0)" xlink:href="#aT"/></g><path fill="#333" d="M238-95c0 69-44 99-111 99C63 4 22-25 22-93v-155h51v151c-1 38 19 59 55 60 90 1 49-130 58-211h52v153" id="aW"/><g id="r"><use transform="matrix(0.056172839506172835,0,0,0.056172839506172835,0,0)" xlink:href="#aW"/><use transform="matrix(0.056172839506172835,0,0,0.056172839506172835,14.548765432098763,0)" xlink:href="#aC"/><use transform="matrix(0.056172839506172835,0,0,0.056172839506172835,25.78333333333333,0)" xlink:href="#aB"/><use transform="matrix(0.056172839506172835,0,0,0.056172839506172835,37.0179012345679,0)" xlink:href="#aE"/></g><g id="s"><use transform="matrix(0.056172839506172835,0,0,0.056172839506172835,0,0)" xlink:href="#au"/><use transform="matrix(0.056172839506172835,0,0,0.056172839506172835,5.617283950617283,0)" xlink:href="#aC"/></g><g id="t"><use transform="matrix(0.056172839506172835,0,0,0.056172839506172835,0,0)" xlink:href="#ay"/><use transform="matrix(0.056172839506172835,0,0,0.056172839506172835,12.30185185185185,0)" xlink:href="#aG"/><use transform="matrix(0.056172839506172835,0,0,0.056172839506172835,24.6037037037037,0)" xlink:href="#ax"/></g><g id="u"><use transform="matrix(0.056172839506172835,0,0,0.056172839506172835,0,0)" xlink:href="#ay"/><use transform="matrix(0.056172839506172835,0,0,0.056172839506172835,12.30185185185185,0)" xlink:href="#az"/></g><g id="v"><use transform="matrix(0.056172839506172835,0,0,0.056172839506172835,0,0)" xlink:href="#aE"/><use transform="matrix(0.056172839506172835,0,0,0.056172839506172835,7.864197530864197,0)" xlink:href="#aF"/><use transform="matrix(0.056172839506172835,0,0,0.056172839506172835,19.098765432098762,0)" xlink:href="#aD"/><use transform="matrix(0.056172839506172835,0,0,0.056172839506172835,31.400617283950616,0)" xlink:href="#av"/><use transform="matrix(0.056172839506172835,0,0,0.056172839506172835,43.70246913580246,0)" xlink:href="#aB"/></g><g id="w"><use transform="matrix(0.056172839506172835,0,0,0.056172839506172835,0,0)" xlink:href="#ax"/><use transform="matrix(0.056172839506172835,0,0,0.056172839506172835,6.684567901234567,0)" xlink:href="#aw"/><use transform="matrix(0.056172839506172835,0,0,0.056172839506172835,18.986419753086416,0)" xlink:href="#aB"/></g><g id="x"><use transform="matrix(0.056172839506172835,0,0,0.056172839506172835,0,0)" xlink:href="#az"/><use transform="matrix(0.056172839506172835,0,0,0.056172839506172835,6.684567901234567,0)" xlink:href="#at"/><use transform="matrix(0.056172839506172835,0,0,0.056172839506172835,12.30185185185185,0)" xlink:href="#au"/><use transform="matrix(0.056172839506172835,0,0,0.056172839506172835,17.919135802469135,0)" xlink:href="#av"/><use transform="matrix(0.056172839506172835,0,0,0.056172839506172835,30.220987654320986,0)" xlink:href="#aw"/><use transform="matrix(0.056172839506172835,0,0,0.056172839506172835,42.522839506172836,0)" xlink:href="#ax"/></g><g id="y"><use transform="matrix(0.056172839506172835,0,0,0.056172839506172835,0,0)" xlink:href="#aC"/><use transform="matrix(0.056172839506172835,0,0,0.056172839506172835,11.234567901234566,0)" xlink:href="#aB"/><use transform="matrix(0.056172839506172835,0,0,0.056172839506172835,22.469135802469133,0)" xlink:href="#aD"/><use transform="matrix(0.056172839506172835,0,0,0.056172839506172835,34.77098765432098,0)" xlink:href="#aC"/><use transform="matrix(0.056172839506172835,0,0,0.056172839506172835,46.005555555555546,0)" xlink:href="#ay"/><use transform="matrix(0.056172839506172835,0,0,0.056172839506172835,58.30740740740739,0)" xlink:href="#aE"/></g><path fill="#333" d="M84 4C-5 8 30-112 23-190h32v120c0 31 7 50 39 49 72-2 45-101 50-169h31l1 190h-30c-1-10 1-25-2-33-11 22-28 36-60 37" id="aX"/><g id="z"><use transform="matrix(0.056172839506172835,0,0,0.056172839506172835,0,0)" xlink:href="#aV"/><use transform="matrix(0.056172839506172835,0,0,0.056172839506172835,11.234567901234566,0)" xlink:href="#aX"/><use transform="matrix(0.056172839506172835,0,0,0.056172839506172835,22.469135802469133,0)" xlink:href="#aN"/></g><g id="A"><use transform="matrix(0.056172839506172835,0,0,0.056172839506172835,0,0)" xlink:href="#aV"/><use transform="matrix(0.056172839506172835,0,0,0.056172839506172835,11.234567901234566,0)" xlink:href="#aP"/><use transform="matrix(0.056172839506172835,0,0,0.056172839506172835,16.458641975308637,0)" xlink:href="#aP"/></g><path fill="#292929" d="M62-168c30 0 50 19 50 48S92-70 62-70c-29 0-48-21-48-50s20-48 48-48" id="aY"/><use transform="matrix(0.0839506172839506,0,0,0.0839506172839506,0,0)" xlink:href="#aY" id="B"/><path fill="#292929" d="M266 0h-40l-56-210L115 0H75L2-248h35L96-30l15-64 43-154h32l59 218 59-218h35" id="aZ"/><path fill="#292929" d="M106-169C34-169 62-67 57 0H25v-261h32l-1 103c12-21 28-36 61-36 89 0 53 116 60 194h-32v-121c2-32-8-49-39-48" id="ba"/><path fill="#292929" d="M100-194c63 0 86 42 84 106H49c0 40 14 67 53 68 26 1 43-12 49-29l28 8c-11 28-37 45-77 45C44 4 14-33 15-96c1-61 26-98 85-98zm52 81c6-60-76-77-97-28-3 7-6 17-6 28h103" id="bb"/><path fill="#292929" d="M117-194c89-4 53 116 60 194h-32v-121c0-31-8-49-39-48C34-167 62-67 57 0H25l-1-190h30c1 10-1 24 2 32 11-22 29-35 61-36" id="bc"/><g id="C"><use transform="matrix(0.0839506172839506,0,0,0.0839506172839506,0,0)" xlink:href="#aZ"/><use transform="matrix(0.0839506172839506,0,0,0.0839506172839506,28.459259259259255,0)" xlink:href="#ba"/><use transform="matrix(0.0839506172839506,0,0,0.0839506172839506,45.249382716049375,0)" xlink:href="#bb"/><use transform="matrix(0.0839506172839506,0,0,0.0839506172839506,62.039506172839495,0)" xlink:href="#bc"/></g><path fill="#292929" d="M141-36C126-15 110 5 73 4 37 3 15-17 15-53c-1-64 63-63 125-63 3-35-9-54-41-54-24 1-41 7-42 31l-33-3c5-37 33-52 76-52 45 0 72 20 72 64v82c-1 20 7 32 28 27v20c-31 9-61-2-59-35zM48-53c0 20 12 33 32 33 41-3 63-29 60-74-43 2-92-5-92 41" id="bd"/><use transform="matrix(0.0839506172839506,0,0,0.0839506172839506,0,0)" xlink:href="#bd" id="D"/><path fill="#292929" d="M84 4C-5 8 30-112 23-190h32v120c0 31 7 50 39 49 72-2 45-101 50-169h31l1 190h-30c-1-10 1-25-2-33-11 22-28 36-60 37" id="be"/><path fill="#292929" d="M135-143c-3-34-86-38-87 0 15 53 115 12 119 90S17 21 10-45l28-5c4 36 97 45 98 0-10-56-113-15-118-90-4-57 82-63 122-42 12 7 21 19 24 35" id="bf"/><path fill="#292929" d="M114-163C36-179 61-72 57 0H25l-1-190h30c1 12-1 29 2 39 6-27 23-49 58-41v29" id="bg"/><g id="E"><use transform="matrix(0.0839506172839506,0,0,0.0839506172839506,0,0)" xlink:href="#be"/><use transform="matrix(0.0839506172839506,0,0,0.0839506172839506,16.79012345679012,0)" xlink:href="#bf"/><use transform="matrix(0.0839506172839506,0,0,0.0839506172839506,31.901234567901223,0)" xlink:href="#bb"/><use transform="matrix(0.0839506172839506,0,0,0.0839506172839506,48.691358024691354,0)" xlink:href="#bg"/></g><path fill="#292929" d="M59-47c-2 24 18 29 38 22v24C64 9 27 4 27-40v-127H5v-23h24l9-43h21v43h35v23H59v120" id="bh"/><path fill="#292929" d="M85-194c31 0 48 13 60 33l-1-100h32l1 261h-30c-2-10 0-23-3-31C134-8 116 4 85 4 32 4 16-35 15-94c0-66 23-100 70-100zm9 24c-40 0-46 34-46 75 0 40 6 74 45 74 42 0 51-32 51-76 0-42-9-74-50-73" id="bi"/><path fill="#292929" d="M0 4l72-265h28L28 4H0" id="bj"/><path fill="#292929" d="M206 0h-36l-40-164L89 0H53L-1-190h32L70-26l43-164h34l41 164 42-164h31" id="bk"/><path fill="#292929" d="M24 0v-261h32V0H24" id="bl"/><path fill="#292929" d="M143 0L79-87 56-68V0H24v-261h32v163l83-92h37l-77 82L181 0h-38" id="bm"/><g id="F"><use transform="matrix(0.0839506172839506,0,0,0.0839506172839506,0,0)" xlink:href="#bf"/><use transform="matrix(0.0839506172839506,0,0,0.0839506172839506,15.111111111111109,0)" xlink:href="#bh"/><use transform="matrix(0.0839506172839506,0,0,0.0839506172839506,23.50617283950617,0)" xlink:href="#bd"/><use transform="matrix(0.0839506172839506,0,0,0.0839506172839506,40.29629629629629,0)" xlink:href="#bc"/><use transform="matrix(0.0839506172839506,0,0,0.0839506172839506,57.08641975308641,0)" xlink:href="#bi"/><use transform="matrix(0.0839506172839506,0,0,0.0839506172839506,73.87654320987653,0)" xlink:href="#bf"/><use transform="matrix(0.0839506172839506,0,0,0.0839506172839506,88.98765432098764,0)" xlink:href="#bj"/><use transform="matrix(0.0839506172839506,0,0,0.0839506172839506,97.38271604938271,0)" xlink:href="#bj"/><use transform="matrix(0.0839506172839506,0,0,0.0839506172839506,105.77777777777779,0)" xlink:href="#bk"/><use transform="matrix(0.0839506172839506,0,0,0.0839506172839506,127.52098765432096,0)" xlink:href="#bd"/><use transform="matrix(0.0839506172839506,0,0,0.0839506172839506,144.3111111111111,0)" xlink:href="#bl"/><use transform="matrix(0.0839506172839506,0,0,0.0839506172839506,150.9432098765432,0)" xlink:href="#bm"/><use transform="matrix(0.0839506172839506,0,0,0.0839506172839506,166.0543209876543,0)" xlink:href="#bf"/></g><path fill="#292929" d="M24-231v-30h32v30H24zM24 0v-190h32V0H24" id="bn"/><path fill="#292929" d="M100-194c62-1 85 37 85 99 1 63-27 99-86 99S16-35 15-95c0-66 28-99 85-99zM99-20c44 1 53-31 53-75 0-43-8-75-51-75s-53 32-53 75 10 74 51 75" id="bo"/><g id="G"><use transform="matrix(0.0839506172839506,0,0,0.0839506172839506,0,0)" xlink:href="#bn"/><use transform="matrix(0.0839506172839506,0,0,0.0839506172839506,6.632098765432097,0)" xlink:href="#bc"/><use transform="matrix(0.0839506172839506,0,0,0.0839506172839506,23.422222222222217,0)" xlink:href="#bh"/><use transform="matrix(0.0839506172839506,0,0,0.0839506172839506,31.81728395061728,0)" xlink:href="#bo"/></g><g id="H"><use transform="matrix(0.0839506172839506,0,0,0.0839506172839506,0,0)" xlink:href="#bh"/><use transform="matrix(0.0839506172839506,0,0,0.0839506172839506,8.39506172839506,0)" xlink:href="#ba"/><use transform="matrix(0.0839506172839506,0,0,0.0839506172839506,25.18518518518518,0)" xlink:href="#bb"/></g><path fill="#292929" d="M177-190C167-65 218 103 67 71c-23-6-38-20-44-43l32-5c15 47 100 32 89-28v-30C133-14 115 1 83 1 29 1 15-40 15-95c0-56 16-97 71-98 29-1 48 16 59 35 1-10 0-23 2-32h30zM94-22c36 0 50-32 50-73 0-42-14-75-50-75-39 0-46 34-46 75s6 73 46 73" id="bp"/><g id="I"><use transform="matrix(0.0839506172839506,0,0,0.0839506172839506,0,0)" xlink:href="#bg"/><use transform="matrix(0.0839506172839506,0,0,0.0839506172839506,9.990123456790123,0)" xlink:href="#bd"/><use transform="matrix(0.0839506172839506,0,0,0.0839506172839506,26.780246913580243,0)" xlink:href="#bc"/><use transform="matrix(0.0839506172839506,0,0,0.0839506172839506,43.57037037037036,0)" xlink:href="#bp"/><use transform="matrix(0.0839506172839506,0,0,0.0839506172839506,60.36049382716048,0)" xlink:href="#bb"/></g><path fill="#292929" d="M101-234c-31-9-42 10-38 44h38v23H63V0H32v-167H5v-23h27c-7-52 17-82 69-68v24" id="bq"/><g id="J"><use transform="matrix(0.0839506172839506,0,0,0.0839506172839506,0,0)" xlink:href="#bo"/><use transform="matrix(0.0839506172839506,0,0,0.0839506172839506,16.79012345679012,0)" xlink:href="#bq"/></g><g id="K"><use transform="matrix(0.0839506172839506,0,0,0.0839506172839506,0,0)" xlink:href="#bh"/><use transform="matrix(0.0839506172839506,0,0,0.0839506172839506,8.39506172839506,0)" xlink:href="#ba"/><use transform="matrix(0.0839506172839506,0,0,0.0839506172839506,25.18518518518518,0)" xlink:href="#bb"/></g><path fill="#292929" d="M210-169c-67 3-38 105-44 169h-31v-121c0-29-5-50-35-48C34-165 62-65 56 0H25l-1-190h30c1 10-1 24 2 32 10-44 99-50 107 0 11-21 27-35 58-36 85-2 47 119 55 194h-31v-121c0-29-5-49-35-48" id="br"/><g id="L"><use transform="matrix(0.0839506172839506,0,0,0.0839506172839506,0,0)" xlink:href="#bh"/><use transform="matrix(0.0839506172839506,0,0,0.0839506172839506,8.39506172839506,0)" xlink:href="#bn"/><use transform="matrix(0.0839506172839506,0,0,0.0839506172839506,15.027160493827159,0)" xlink:href="#br"/><use transform="matrix(0.0839506172839506,0,0,0.0839506172839506,40.12839506172838,0)" xlink:href="#bb"/></g><g id="M"><use transform="matrix(0.0839506172839506,0,0,0.0839506172839506,0,0)" xlink:href="#bq"/><use transform="matrix(0.0839506172839506,0,0,0.0839506172839506,8.39506172839506,0)" xlink:href="#bl"/><use transform="matrix(0.0839506172839506,0,0,0.0839506172839506,15.027160493827159,0)" xlink:href="#bn"/><use transform="matrix(0.0839506172839506,0,0,0.0839506172839506,21.659259259259255,0)" xlink:href="#bp"/><use transform="matrix(0.0839506172839506,0,0,0.0839506172839506,38.44938271604937,0)" xlink:href="#ba"/><use transform="matrix(0.0839506172839506,0,0,0.0839506172839506,55.23950617283949,0)" xlink:href="#bh"/></g><path fill="#292929" d="M68-38c1 34 0 65-14 84H32c9-13 17-26 17-46H33v-38h35" id="bs"/><g id="N"><use transform="matrix(0.0839506172839506,0,0,0.0839506172839506,0,0)" xlink:href="#bf"/><use transform="matrix(0.0839506172839506,0,0,0.0839506172839506,15.111111111111109,0)" xlink:href="#bb"/><use transform="matrix(0.0839506172839506,0,0,0.0839506172839506,31.901234567901223,0)" xlink:href="#bc"/><use transform="matrix(0.0839506172839506,0,0,0.0839506172839506,48.691358024691354,0)" xlink:href="#bf"/><use transform="matrix(0.0839506172839506,0,0,0.0839506172839506,63.80246913580245,0)" xlink:href="#bo"/><use transform="matrix(0.0839506172839506,0,0,0.0839506172839506,80.59259259259258,0)" xlink:href="#bg"/><use transform="matrix(0.0839506172839506,0,0,0.0839506172839506,88.90370370370368,0)" xlink:href="#bs"/></g><g id="O"><use transform="matrix(0.0839506172839506,0,0,0.0839506172839506,0,0)" xlink:href="#bl"/><use transform="matrix(0.0839506172839506,0,0,0.0839506172839506,6.632098765432097,0)" xlink:href="#bn"/><use transform="matrix(0.0839506172839506,0,0,0.0839506172839506,13.264197530864195,0)" xlink:href="#bp"/><use transform="matrix(0.0839506172839506,0,0,0.0839506172839506,30.054320987654318,0)" xlink:href="#bh"/><use transform="matrix(0.0839506172839506,0,0,0.0839506172839506,38.44938271604937,0)" xlink:href="#ba"/></g><path fill="#292929" d="M30 0v-248h33v221h125V0H30" id="bt"/><path fill="#292929" d="M30 0v-248h187v28H63v79h144v27H63v87h162V0H30" id="bu"/><path fill="#292929" d="M30-248c118-7 216 8 213 122C240-48 200 0 122 0H30v-248zM63-27c89 8 146-16 146-99s-60-101-146-95v194" id="bv"/><g id="P"><use transform="matrix(0.0839506172839506,0,0,0.0839506172839506,0,0)" xlink:href="#bt"/><use transform="matrix(0.0839506172839506,0,0,0.0839506172839506,16.79012345679012,0)" xlink:href="#bu"/><use transform="matrix(0.0839506172839506,0,0,0.0839506172839506,36.938271604938265,0)" xlink:href="#bv"/></g><path fill="#292929" d="M115-194c55 1 70 41 70 98S169 2 115 4C84 4 66-9 55-30l1 105H24l-1-265h31l2 30c10-21 28-34 59-34zm-8 174c40 0 45-34 45-75s-6-73-45-74c-42 0-51 32-51 76 0 43 10 73 51 73" id="bw"/><g id="Q"><use transform="matrix(0.0839506172839506,0,0,0.0839506172839506,0,0)" xlink:href="#bf"/><use transform="matrix(0.0839506172839506,0,0,0.0839506172839506,15.111111111111109,0)" xlink:href="#bh"/><use transform="matrix(0.0839506172839506,0,0,0.0839506172839506,23.50617283950617,0)" xlink:href="#bg"/><use transform="matrix(0.0839506172839506,0,0,0.0839506172839506,33.49629629629629,0)" xlink:href="#bn"/><use transform="matrix(0.0839506172839506,0,0,0.0839506172839506,40.12839506172839,0)" xlink:href="#bw"/></g><g id="R"><use transform="matrix(0.0839506172839506,0,0,0.0839506172839506,0,0)" xlink:href="#bq"/><use transform="matrix(0.0839506172839506,0,0,0.0839506172839506,8.39506172839506,0)" xlink:href="#bd"/><use transform="matrix(0.0839506172839506,0,0,0.0839506172839506,25.18518518518518,0)" xlink:href="#bi"/><use transform="matrix(0.0839506172839506,0,0,0.0839506172839506,41.9753086419753,0)" xlink:href="#bb"/><use transform="matrix(0.0839506172839506,0,0,0.0839506172839506,58.76543209876542,0)" xlink:href="#bf"/></g><g id="S"><use transform="matrix(0.0839506172839506,0,0,0.0839506172839506,0,0)" xlink:href="#bn"/><use transform="matrix(0.0839506172839506,0,0,0.0839506172839506,6.632098765432097,0)" xlink:href="#bc"/></g><g id="T"><use transform="matrix(0.0839506172839506,0,0,0.0839506172839506,0,0)" xlink:href="#bd"/><use transform="matrix(0.0839506172839506,0,0,0.0839506172839506,16.79012345679012,0)" xlink:href="#bc"/><use transform="matrix(0.0839506172839506,0,0,0.0839506172839506,33.58024691358024,0)" xlink:href="#bi"/></g><path fill="#292929" d="M179-190L93 31C79 59 56 82 12 73V49c39 6 53-20 64-50L1-190h34L92-34l54-156h33" id="bx"/><g id="U"><use transform="matrix(0.0839506172839506,0,0,0.0839506172839506,0,0)" xlink:href="#bf"/><use transform="matrix(0.0839506172839506,0,0,0.0839506172839506,15.111111111111109,0)" xlink:href="#bh"/><use transform="matrix(0.0839506172839506,0,0,0.0839506172839506,23.50617283950617,0)" xlink:href="#bd"/><use transform="matrix(0.0839506172839506,0,0,0.0839506172839506,40.29629629629629,0)" xlink:href="#bx"/><use transform="matrix(0.0839506172839506,0,0,0.0839506172839506,55.4074074074074,0)" xlink:href="#bf"/></g><path fill="#292929" d="M33 0v-38h34V0H33" id="by"/><g id="V"><use transform="matrix(0.0839506172839506,0,0,0.0839506172839506,0,0)" xlink:href="#bo"/><use transform="matrix(0.0839506172839506,0,0,0.0839506172839506,16.79012345679012,0)" xlink:href="#bc"/><use transform="matrix(0.0839506172839506,0,0,0.0839506172839506,33.58024691358024,0)" xlink:href="#by"/></g><path fill="#292929" d="M205 0l-28-72H64L36 0H1l101-248h38L239 0h-34zm-38-99l-47-123c-12 45-31 82-46 123h93" id="bz"/><g id="X"><use transform="matrix(0.0839506172839506,0,0,0.0839506172839506,0,0)" xlink:href="#bz"/><use transform="matrix(0.0839506172839506,0,0,0.0839506172839506,20.148148148148145,0)" xlink:href="#bf"/></g><g id="Y"><use transform="matrix(0.0839506172839506,0,0,0.0839506172839506,0,0)" xlink:href="#bf"/><use transform="matrix(0.0839506172839506,0,0,0.0839506172839506,15.111111111111109,0)" xlink:href="#bo"/><use transform="matrix(0.0839506172839506,0,0,0.0839506172839506,31.901234567901223,0)" xlink:href="#bo"/><use transform="matrix(0.0839506172839506,0,0,0.0839506172839506,48.691358024691354,0)" xlink:href="#bc"/></g><g id="Z"><use transform="matrix(0.0839506172839506,0,0,0.0839506172839506,0,0)" xlink:href="#bd"/><use transform="matrix(0.0839506172839506,0,0,0.0839506172839506,16.79012345679012,0)" xlink:href="#bf"/></g><g id="aa"><use transform="matrix(0.0839506172839506,0,0,0.0839506172839506,0,0)" xlink:href="#bk"/><use transform="matrix(0.0839506172839506,0,0,0.0839506172839506,21.743209876543208,0)" xlink:href="#bd"/><use transform="matrix(0.0839506172839506,0,0,0.0839506172839506,38.53333333333333,0)" xlink:href="#bl"/><use transform="matrix(0.0839506172839506,0,0,0.0839506172839506,45.16543209876542,0)" xlink:href="#bm"/><use transform="matrix(0.0839506172839506,0,0,0.0839506172839506,60.276543209876536,0)" xlink:href="#bf"/></g><g id="ab"><use transform="matrix(0.0839506172839506,0,0,0.0839506172839506,0,0)" xlink:href="#bo"/><use transform="matrix(0.0839506172839506,0,0,0.0839506172839506,16.79012345679012,0)" xlink:href="#be"/><use transform="matrix(0.0839506172839506,0,0,0.0839506172839506,33.58024691358024,0)" xlink:href="#bh"/></g><g id="ac"><use transform="matrix(0.0839506172839506,0,0,0.0839506172839506,0,0)" xlink:href="#bt"/><use transform="matrix(0.0839506172839506,0,0,0.0839506172839506,16.79012345679012,0)" xlink:href="#bu"/><use transform="matrix(0.0839506172839506,0,0,0.0839506172839506,36.938271604938265,0)" xlink:href="#bv"/></g><g id="ad"><use transform="matrix(0.0839506172839506,0,0,0.0839506172839506,0,0)" xlink:href="#bq"/><use transform="matrix(0.0839506172839506,0,0,0.0839506172839506,8.39506172839506,0)" xlink:href="#bd"/><use transform="matrix(0.0839506172839506,0,0,0.0839506172839506,25.18518518518518,0)" xlink:href="#bi"/><use transform="matrix(0.0839506172839506,0,0,0.0839506172839506,41.9753086419753,0)" xlink:href="#bb"/><use transform="matrix(0.0839506172839506,0,0,0.0839506172839506,58.76543209876542,0)" xlink:href="#bf"/></g><g id="ae"><use transform="matrix(0.0839506172839506,0,0,0.0839506172839506,0,0)" xlink:href="#bo"/><use transform="matrix(0.0839506172839506,0,0,0.0839506172839506,16.79012345679012,0)" xlink:href="#bq"/><use transform="matrix(0.0839506172839506,0,0,0.0839506172839506,24.597530864197527,0)" xlink:href="#bq"/><use transform="matrix(0.0839506172839506,0,0,0.0839506172839506,32.99259259259259,0)" xlink:href="#by"/></g></defs></g></svg>